<?xml version="1.0" encoding="UTF-8"?>
<!-- Generated by Pixelmator Pro 3.3.12 -->
<svg width="466" height="466" viewBox="0 0 466 466" xmlns="http://www.w3.org/2000/svg">
    <g id="layer1">
        <filter id="filter1" x="0" y="0" width="466" height="466" filterUnits="userSpaceOnUse" primitiveUnits="userSpaceOnUse" color-interpolation-filters="sRGB">
            <feGaussianBlur stdDeviation="6.396782"/>
        </filter>
        <g id="g4498" filter="url(#filter1)">
            <path id="circle4500" fill="#000000" stroke="#000000" stroke-width="3.039579" stroke-linejoin="round" d="M 435.488953 232.740234 C 435.488953 344.654419 344.764587 435.378906 232.850403 435.378906 C 120.936188 435.378906 30.211716 344.654419 30.211716 232.740234 C 30.211716 120.82605 120.936188 30.101685 232.850403 30.101685 C 344.764587 30.101685 435.488953 120.82605 435.488953 232.740234 Z"/>
            <path id="path4502" fill="#000000" stroke="#000000" stroke-width="3.2" stroke-linejoin="round" d="M 232.950409 19.515137 C 120.449341 19.515137 28.295441 106.598816 20.202484 217.033813 L 136.617065 217.033813 C 144.365234 169.55011 185.376038 134.673401 233.487885 134.652588 C 281.698059 134.721985 322.726959 169.779175 330.317047 217.388 L 330.393768 217.388 L 330.393768 217.033813 L 445.498047 217.033813 C 436.245422 120.827454 344.62735 19.515137 232.950134 19.515137 Z"/>
            <path id="path4504" fill="#000000" stroke="#000000" stroke-width="3.2" stroke-linejoin="round" d="M 232.850403 160.055725 C 192.708588 160.055969 160.167206 192.597229 160.167053 232.739075 C 160.166534 252.016235 167.824097 270.504028 181.454834 284.135132 C 195.085693 297.766388 213.573181 305.424469 232.850403 305.424469 C 252.127472 305.424469 270.615112 297.766388 284.245972 284.135284 C 297.876709 270.504028 305.534241 252.016235 305.533722 232.739075 C 305.5336 192.597229 272.992188 160.055969 232.850403 160.055725 Z M 232.850403 206.445435 C 247.372528 206.444763 259.145569 218.216919 259.14624 232.739075 C 259.146484 239.713257 256.37619 246.401917 251.444672 251.333435 C 246.513153 256.264954 239.824493 259.035278 232.850403 259.035034 C 218.328125 259.034363 206.556122 247.261292 206.556641 232.739075 C 206.557281 218.217712 218.329041 206.446106 232.850403 206.445435 Z"/>
            <path id="path4506" fill="#000000" stroke="#000000" stroke-width="3.2" stroke-linejoin="round" d="M 19.623306 238.638123 C 22.804428 353.680847 117.057556 445.96521 232.869141 445.96521 C 348.350281 445.96521 442.387878 337.633972 446.077454 238.638123 L 331.392059 238.638123 C 328.218628 290.430573 285.296112 330.814056 233.406647 330.827728 C 181.55249 330.765625 138.684235 290.395294 135.512909 238.638123 L 19.623306 238.638123 Z"/>
            <path id="path4508" fill="#000000" stroke="#000000" stroke-width="3.2" stroke-linejoin="round" d="M 232.950409 19.515137 C 120.449341 19.515137 28.295441 106.598816 20.202484 217.033813 L 136.617065 217.033813 C 144.365234 169.55011 185.376038 134.673401 233.487885 134.652588 C 281.698059 134.721985 322.726959 169.779175 330.317047 217.388 L 330.393768 217.388 L 330.393768 217.033813 L 445.498047 217.033813 C 436.245422 120.827454 344.62735 19.515137 232.950134 19.515137 Z"/>
        </g>
        <g id="g4491">
            <path id="circle4275" fill="#000000" stroke="#000000" stroke-width="3.039579" stroke-linejoin="round" d="M 435.488953 232.740173 C 435.488953 344.654388 344.764587 435.378876 232.850403 435.378876 C 120.936188 435.378876 30.211716 344.654388 30.211716 232.740173 C 30.211716 120.825989 120.936188 30.101685 232.850403 30.101685 C 344.764587 30.101685 435.488953 120.825989 435.488953 232.740173 Z"/>
            <path id="path4277" fill="#ff0000" stroke="#000000" stroke-width="3.2" stroke-linejoin="round" d="M 232.950409 19.515137 C 120.449341 19.515137 28.295441 106.598816 20.202484 217.033813 L 136.617065 217.033813 C 144.365234 169.55011 185.376038 134.673401 233.487885 134.652588 C 281.698059 134.721985 322.726959 169.779114 330.317047 217.388 L 330.393768 217.388 L 330.393768 217.033813 L 445.498047 217.033813 C 436.245422 120.827454 344.62735 19.515137 232.950134 19.515137 Z"/>
            <path id="path4279" fill="#f2f2f2" stroke="#000000" stroke-width="3.2" stroke-linejoin="round" d="M 232.850403 160.055664 C 192.708588 160.055969 160.167206 192.597229 160.167053 232.739014 C 160.166534 252.016235 167.824097 270.504028 181.454834 284.135132 C 195.085693 297.766357 213.573181 305.424438 232.850403 305.424438 C 252.127472 305.424438 270.615112 297.766357 284.245972 284.135254 C 297.876709 270.504028 305.534241 252.016235 305.533722 232.739014 C 305.5336 192.597229 272.992188 160.055969 232.850403 160.055664 Z M 232.850403 206.445435 C 247.372528 206.444763 259.145569 218.216919 259.14624 232.739014 C 259.146484 239.713257 256.37619 246.401917 251.444672 251.333435 C 246.513153 256.264954 239.824493 259.035278 232.850403 259.034973 C 218.328125 259.034363 206.556122 247.261292 206.556641 232.739014 C 206.557281 218.217651 218.329041 206.446045 232.850403 206.445435 Z"/>
            <path id="path4281" fill="#f9f9f9" stroke="#000000" stroke-width="3.2" stroke-linejoin="round" d="M 19.623306 238.638123 C 22.804428 353.680817 117.057556 445.96521 232.869141 445.96521 C 348.350281 445.96521 442.387878 337.633942 446.077454 238.638123 L 331.392059 238.638123 C 328.218628 290.430573 285.296112 330.814026 233.406647 330.827698 C 181.55249 330.765594 138.684235 290.395264 135.512909 238.638123 L 19.623306 238.638123 Z"/>
            <linearGradient id="linearGradient1" x1="233.49792" y1="-52.822565" x2="318.831253" y2="395.177456" gradientUnits="userSpaceOnUse">
                <stop offset="1e-05" stop-color="#ffffff" stop-opacity="1"/>
                <stop offset="1" stop-color="#ff0000" stop-opacity="0"/>
            </linearGradient>
            <path id="path4479" fill="url(#linearGradient1)" stroke="#000000" stroke-width="3.2" stroke-linejoin="round" d="M 232.950409 19.515137 C 120.449341 19.515137 28.295441 106.598816 20.202484 217.033813 L 136.617065 217.033813 C 144.365234 169.55011 185.376038 134.673401 233.487885 134.652588 C 281.698059 134.721985 322.726959 169.779114 330.317047 217.388 L 330.393768 217.388 L 330.393768 217.033813 L 445.498047 217.033813 C 436.245422 120.827454 344.62735 19.515137 232.950134 19.515137 Z"/>
        </g>
    </g>
</svg>
